<svg width="70.000000" height="70.000000" viewBox="0 0 70 70" fill="none" xmlns="http://www.w3.org/2000/svg" xmlns:xlink="http://www.w3.org/1999/xlink">
	<desc>
			Created with Pixso.
	</desc>
	<defs>
		<clipPath id="clip21_39">
			<rect id="armchair 1" width="70.000000" height="70.000000" fill="white" fill-opacity="0"/>
		</clipPath>
	</defs>
	<rect id="armchair 1" width="70.000000" height="70.000000" fill="#FFFFFF" fill-opacity="0"/>
	<g clip-path="url(#clip21_39)">
		<path id="Vector" d="M27.66 12.53L26.72 12.53L26.72 11.59C26.72 11.02 26.26 10.56 25.69 10.56C25.13 10.56 24.67 11.02 24.67 11.59L24.67 12.53L23.72 12.53C23.16 12.53 22.7 12.99 22.7 13.56C22.7 14.13 23.16 14.58 23.72 14.58L24.67 14.58L24.67 15.53C24.67 16.1 25.13 16.56 25.69 16.56C26.26 16.56 26.72 16.1 26.72 15.53L26.72 14.58L27.66 14.58C28.23 14.58 28.69 14.13 28.69 13.56C28.69 12.99 28.23 12.53 27.66 12.53Z" fill="#FFFFFF" fill-opacity="1.000000" fill-rule="nonzero"/>
		<path id="Vector" d="M46.27 12.53L45.32 12.53L45.32 11.59C45.32 11.02 44.86 10.56 44.3 10.56C43.73 10.56 43.27 11.02 43.27 11.59L43.27 12.53L42.33 12.53C41.76 12.53 41.3 12.99 41.3 13.56C41.3 14.13 41.76 14.58 42.33 14.58L43.27 14.58L43.27 15.53C43.27 16.1 43.73 16.56 44.3 16.56C44.86 16.56 45.32 16.1 45.32 15.53L45.32 14.58L46.27 14.58C46.83 14.58 47.29 14.13 47.29 13.56C47.29 12.99 46.83 12.53 46.27 12.53Z" fill="#FFFFFF" fill-opacity="1.000000" fill-rule="nonzero"/>
		<path id="Vector" d="M27.66 26.62L26.72 26.62L26.72 25.68C26.72 25.11 26.26 24.65 25.69 24.65C25.13 24.65 24.67 25.11 24.67 25.68L24.67 26.62L23.72 26.62C23.16 26.62 22.7 27.08 22.7 27.65C22.7 28.22 23.16 28.68 23.72 28.68L24.67 28.68L24.67 29.62C24.67 30.19 25.13 30.65 25.69 30.65C26.26 30.65 26.72 30.19 26.72 29.62L26.72 28.68L27.66 28.68C28.23 28.68 28.69 28.22 28.69 27.65C28.69 27.08 28.23 26.62 27.66 26.62Z" fill="#FFFFFF" fill-opacity="1.000000" fill-rule="nonzero"/>
		<path id="Vector" d="M46.27 26.62L45.32 26.62L45.32 25.68C45.32 25.11 44.86 24.65 44.3 24.65C43.73 24.65 43.27 25.11 43.27 25.68L43.27 26.62L42.33 26.62C41.76 26.62 41.3 27.08 41.3 27.65C41.3 28.22 41.76 28.68 42.33 28.68L43.27 28.68L43.27 29.62C43.27 30.19 43.73 30.65 44.3 30.65C44.86 30.65 45.32 30.19 45.32 29.62L45.32 28.68L46.27 28.68C46.83 28.68 47.29 28.22 47.29 27.65C47.29 27.08 46.83 26.62 46.27 26.62Z" fill="#FFFFFF" fill-opacity="1.000000" fill-rule="nonzero"/>
		<path id="Vector" d="M63.45 29.05L49.87 29.05C48.71 29.05 47.77 29.99 47.77 31.15L47.77 33.93C47.77 35.09 48.71 36.03 49.87 36.03L50.07 36.03L50.07 40.68C49.16 39.96 48.01 39.52 46.76 39.52L22.96 39.52C21.71 39.52 20.56 39.96 19.65 40.68L19.65 36.02L20.12 36.02C21.28 36.02 22.22 35.08 22.22 33.92L22.22 31.14C22.22 29.98 21.28 29.04 20.12 29.04L6.54 29.04C5.38 29.04 4.44 29.98 4.44 31.14L4.44 33.92C4.44 35.08 5.38 36.02 6.54 36.02L7.01 36.02L7.01 49.12C7.01 51.21 8.62 52.93 10.67 53.11L10.67 55.16C10.67 56.78 11.99 58.11 13.62 58.11L15.97 58.11L15.97 67.94L14.5 67.94C13.93 67.94 13.47 68.4 13.47 68.97C13.47 69.54 13.93 69.99 14.5 69.99L24.75 69.99C25.32 69.99 25.78 69.54 25.78 68.97C25.78 68.4 25.32 67.94 24.75 67.94L23.28 67.94L23.28 58.11L46.44 58.11L46.44 67.94L44.97 67.94C44.4 67.94 43.94 68.4 43.94 68.97C43.94 69.54 44.4 69.99 44.97 69.99L55.22 69.99C55.79 69.99 56.25 69.54 56.25 68.97C56.25 68.4 55.79 67.94 55.22 67.94L53.75 67.94L53.75 58.11L56.1 58.11C57.73 58.11 59.05 56.78 59.05 55.16L59.05 53.11C61.1 52.93 62.71 51.21 62.71 49.12L62.71 36.03L63.45 36.03C64.61 36.03 65.55 35.09 65.55 33.93L65.55 31.15C65.55 29.99 64.61 29.05 63.45 29.05ZM22.96 41.58L46.76 41.58C48.59 41.58 50.07 43.06 50.07 44.89L50.07 51.08L19.65 51.08L19.65 44.89C19.65 43.06 21.14 41.58 22.96 41.58ZM6.54 33.97C6.51 33.97 6.49 33.95 6.49 33.92L6.49 31.14C6.49 31.11 6.51 31.09 6.54 31.09L20.12 31.09C20.14 31.09 20.17 31.11 20.17 31.14L20.17 33.92C20.17 33.95 20.14 33.97 20.12 33.97L6.54 33.97ZM11.02 51.08C9.94 51.08 9.06 50.2 9.06 49.12L9.06 36.02L17.6 36.02L17.6 51.08L11.02 51.08ZM21.23 67.94L18.02 67.94L18.02 58.11L21.23 58.11L21.23 67.94ZM51.7 67.94L48.49 67.94L48.49 58.11L51.7 58.11L51.7 67.94ZM57 55.16C57 55.65 56.6 56.05 56.1 56.05L13.62 56.05C13.12 56.05 12.72 55.65 12.72 55.16L12.72 53.13L57 53.13L57 55.16ZM60.66 49.12C60.66 50.2 59.78 51.08 58.7 51.08L52.12 51.08L52.12 36.03L60.66 36.03L60.66 49.12ZM63.5 33.93C63.5 33.96 63.48 33.98 63.45 33.98L49.87 33.98C49.85 33.98 49.82 33.96 49.82 33.93L49.82 31.15C49.82 31.12 49.85 31.1 49.87 31.1L63.45 31.1C63.48 31.1 63.5 31.12 63.5 31.15L63.5 33.93Z" fill="#FFFFFF" fill-opacity="1.000000" fill-rule="nonzero"/>
		<path id="Vector" d="M57.69 8.45C57.69 3.79 53.9 0 49.24 0L20.48 0C15.82 0 12.03 3.79 12.03 8.45L12.03 25.26C12.03 25.83 12.49 26.29 13.05 26.29C13.62 26.29 14.08 25.83 14.08 25.26L14.08 8.45C14.08 4.92 16.95 2.05 20.48 2.05L49.24 2.05C52.77 2.05 55.64 4.92 55.64 8.45L55.72 25.27C55.72 25.83 56.18 26.29 56.74 26.29C56.75 26.29 56.75 26.29 56.75 26.29C57.32 26.29 57.77 25.83 57.77 25.26L57.69 8.45Z" fill="#FFFFFF" fill-opacity="1.000000" fill-rule="nonzero"/>
	</g>
</svg>
