<svg width="70.000000" height="70.000000" viewBox="0 0 70 70" fill="none" xmlns="http://www.w3.org/2000/svg" xmlns:xlink="http://www.w3.org/1999/xlink">
	<desc>
			Created with Pixso.
	</desc>
	<defs>
		<clipPath id="clip21_58">
			<rect id="theater 1" width="70.000000" height="70.000000" fill="white" fill-opacity="0"/>
		</clipPath>
	</defs>
	<rect id="theater 1" width="70.000000" height="70.000000" fill="#FFFFFF" fill-opacity="0"/>
	<g clip-path="url(#clip21_58)">
		<path id="Vector" d="M68.92 33.64L68.92 3.93C68.92 3.36 68.46 2.9 67.9 2.9L2.09 2.9C1.53 2.9 1.07 3.36 1.07 3.93L1.07 33.64C0.43 33.97 0 34.64 0 35.41L0 37.52C0 38.29 0.43 38.96 1.07 39.3L1.07 66.06C1.07 66.63 1.53 67.09 2.09 67.09L6.76 67.09L11.34 67.09L11.65 67.09L23.16 67.09L34.97 67.09L46.78 67.09L58.34 67.09L58.6 67.09L63.23 67.09L67.9 67.09C68.46 67.09 68.92 66.63 68.92 66.06L68.92 39.3C69.56 38.96 70 38.29 70 37.52L70 35.41C70 34.64 69.56 33.97 68.92 33.64ZM66.48 4.96C66.07 5.56 65.31 6.27 64.11 7.03C64.09 7.04 64.08 7.04 64.06 7.05C63.99 7.1 63.92 7.14 63.85 7.18C63.82 7.2 63.78 7.22 63.75 7.24C63.69 7.28 63.64 7.31 63.58 7.34C63.53 7.37 63.49 7.4 63.44 7.42C63.4 7.45 63.35 7.47 63.3 7.5C63.25 7.53 63.19 7.56 63.13 7.6C63.12 7.6 63.11 7.61 63.1 7.61C62.95 7.69 62.8 7.77 62.64 7.85C62.6 7.87 62.55 7.9 62.51 7.92C62.45 7.95 62.39 7.98 62.33 8.01C62.27 8.04 62.21 8.07 62.15 8.09C62.1 8.12 62.04 8.15 61.99 8.17C61.91 8.21 61.84 8.24 61.77 8.28C61.72 8.3 61.68 8.32 61.63 8.34C61.53 8.39 61.42 8.43 61.32 8.48C61.3 8.49 61.28 8.5 61.25 8.51C60.83 8.69 60.39 8.88 59.91 9.06C59.91 9.06 59.91 9.06 59.91 9.06C59.3 9.3 58.64 9.54 57.94 9.77C56.04 10.4 53.99 10.94 51.83 11.39C51.8 11.4 51.77 11.4 51.73 11.41C49.69 11.84 47.53 12.19 45.33 12.46C45.31 12.46 45.28 12.47 45.25 12.47C41.94 12.87 38.48 13.07 35 13.07C31.51 13.07 28.05 12.87 24.74 12.47C24.71 12.47 24.68 12.46 24.66 12.46C22.46 12.19 20.3 11.84 18.26 11.41C18.22 11.4 18.19 11.4 18.16 11.39C16 10.94 13.95 10.4 12.05 9.77C11.35 9.54 10.69 9.3 10.08 9.06C10.08 9.06 10.08 9.06 10.08 9.06C9.6 8.88 9.16 8.69 8.74 8.51C8.72 8.5 8.69 8.49 8.67 8.48C8.57 8.43 8.46 8.39 8.36 8.34C8.32 8.32 8.27 8.3 8.22 8.28C8.15 8.24 8.08 8.21 8 8.17C7.95 8.15 7.89 8.12 7.84 8.09C7.78 8.07 7.72 8.04 7.66 8.01C7.6 7.98 7.54 7.95 7.48 7.92C7.44 7.9 7.39 7.88 7.35 7.85C7.2 7.77 7.04 7.69 6.9 7.61C6.88 7.61 6.87 7.6 6.86 7.6C6.8 7.56 6.74 7.53 6.69 7.5C6.64 7.47 6.59 7.45 6.55 7.42C6.5 7.4 6.46 7.37 6.41 7.34C6.35 7.31 6.3 7.28 6.24 7.24C6.21 7.22 6.17 7.2 6.14 7.18C6.07 7.14 6 7.1 5.93 7.05C5.91 7.04 5.9 7.04 5.88 7.03C4.68 6.27 3.92 5.56 3.51 4.96L66.48 4.96L66.48 4.96ZM3.12 7.56C3.44 7.84 3.8 8.12 4.21 8.4C5.3 9.15 6.76 9.94 8.69 10.72C8.69 17.18 6.81 24.35 5.2 29.32C5.02 29.86 5.32 30.43 5.86 30.61C6.39 30.78 6.97 30.49 7.15 29.95C8.74 25.04 10.59 18 10.73 11.49C10.95 11.57 11.18 11.64 11.41 11.72C13.08 12.27 14.87 12.76 16.73 13.19C14.56 19.92 11.03 25.47 8.37 29.01C8.03 29.46 8.13 30.11 8.58 30.45C8.76 30.59 8.98 30.65 9.19 30.65C9.51 30.65 9.82 30.51 10.02 30.24C12.79 26.54 16.5 20.71 18.76 13.61C20.17 13.89 21.63 14.13 23.11 14.33C20.94 19.66 16.58 25.15 13.2 28.93C12.82 29.35 12.85 30 13.28 30.38C13.7 30.76 14.35 30.73 14.73 30.3C21.04 23.25 23.91 17.97 25.22 14.59C28.39 14.94 31.68 15.13 34.99 15.13C38.31 15.13 41.6 14.94 44.77 14.59C46.99 20.37 51.66 26.29 55.27 30.31C55.65 30.74 56.3 30.77 56.72 30.39C57.15 30.01 57.18 29.36 56.8 28.94C53.41 25.16 49.05 19.67 46.88 14.33C48.36 14.13 49.82 13.89 51.23 13.61C53.49 20.72 57.21 26.56 59.99 30.26C60.19 30.53 60.5 30.67 60.81 30.67C61.02 30.67 61.24 30.6 61.42 30.46C61.88 30.12 61.97 29.48 61.63 29.03C58.97 25.49 55.43 19.93 53.26 13.19C55.12 12.76 56.91 12.27 58.58 11.72C58.81 11.64 59.04 11.57 59.26 11.49C59.4 18 61.25 25.03 62.84 29.94C63.01 30.48 63.59 30.77 64.13 30.6C64.67 30.42 64.97 29.84 64.79 29.3C63.18 24.35 61.3 17.17 61.3 10.72C63.23 9.94 64.69 9.15 65.78 8.4C66.19 8.12 66.55 7.84 66.87 7.56L66.87 33.4L61.17 33.4C60.06 33.4 59.16 34.3 59.16 35.41L59.16 37.52C59.16 38.07 59.38 38.56 59.74 38.92C59.11 40.81 58.37 43.19 57.66 45.76L12.33 45.76C11.62 43.19 10.88 40.81 10.25 38.92C10.61 38.56 10.83 38.07 10.83 37.52L10.83 35.41C10.83 34.3 9.93 33.4 8.82 33.4L3.12 33.4L3.12 7.56ZM2.05 37.48L2.05 35.46L8.77 35.46L8.77 37.48L4.87 37.48L2.09 37.48L2.05 37.48ZM7.33 64.7C7.22 64.9 7 65.03 6.76 65.03L3.12 65.03L3.12 39.53L4.11 39.53C7.85 52.19 9.05 61.57 7.33 64.7ZM12.37 65.03L12.37 59.36C12.37 58.14 13.36 57.15 14.58 57.15L19.92 57.15C21.14 57.15 22.13 58.14 22.13 59.36L22.13 65.03L12.37 65.03ZM24.18 65.03L24.18 59.36C24.18 58.14 25.18 57.15 26.4 57.15L31.73 57.15C32.95 57.15 33.94 58.14 33.94 59.36L33.94 65.03L24.18 65.03ZM36 65.03L36 59.36C36 58.14 36.99 57.15 38.21 57.15L43.54 57.15C44.76 57.15 45.76 58.14 45.76 59.36L45.76 65.03L36 65.03ZM57.57 65.03L47.81 65.03L47.81 59.36C47.81 58.14 48.8 57.15 50.02 57.15L55.36 57.15C56.58 57.15 57.57 58.14 57.57 59.36L57.57 65.03ZM59.62 65.03L59.62 59.36C59.62 57.01 57.71 55.1 55.36 55.1L50.02 55.1C48.73 55.1 47.57 55.68 46.78 56.59C46 55.68 44.84 55.1 43.54 55.1L38.21 55.1C36.91 55.1 35.75 55.68 34.97 56.59C34.19 55.68 33.02 55.1 31.73 55.1L26.4 55.1C25.1 55.1 23.94 55.68 23.16 56.59C22.37 55.68 21.21 55.1 19.91 55.1L14.58 55.1C12.23 55.1 10.31 57.01 10.31 59.36L10.31 65.03L9.44 65.03C11.52 59.77 8.54 47.42 6.25 39.53L8.29 39.53C9.26 42.48 10.53 46.63 11.5 50.84C11.63 51.39 12.18 51.74 12.74 51.61C13.29 51.48 13.63 50.93 13.51 50.38C13.31 49.52 13.1 48.66 12.88 47.81L57.11 47.81C56.89 48.67 56.68 49.53 56.48 50.4C56.35 50.96 56.7 51.51 57.25 51.64C57.33 51.65 57.4 51.66 57.48 51.66C57.95 51.66 58.37 51.34 58.48 50.87C59.45 46.64 60.73 42.48 61.7 39.53L63.74 39.53C61.45 47.42 58.47 59.77 60.55 65.03L59.62 65.03ZM66.87 65.03L63.23 65.03C62.99 65.03 62.77 64.9 62.66 64.7C60.94 61.57 62.14 52.19 65.88 39.53L66.87 39.53L66.87 65.03ZM67.94 37.48L67.9 37.48L65.12 37.48L61.22 37.48L61.22 35.46L67.94 35.46L67.94 37.48Z" fill="#FFFFFF" fill-opacity="1.000000" fill-rule="nonzero"/>
	</g>
</svg>
